<?xml version="1.0" standalone="no"?>
<!DOCTYPE svg PUBLIC "-//W3C//DTD SVG 20010904//EN"
 "http://www.w3.org/TR/2001/REC-SVG-20010904/DTD/svg10.dtd">
<svg version="1.0" xmlns="http://www.w3.org/2000/svg"
 width="512.000000pt" height="512.000000pt" viewBox="0 0 512.000000 512.000000"
 preserveAspectRatio="xMidYMid meet">

<g transform="translate(0.000000,512.000000) scale(0.100000,-0.100000)"
fill="#000000" stroke="none">
<path d="M2470 4203 c-719 -22 -1443 -350 -1977 -894 -180 -184 -303 -338
-412 -519 -124 -204 -110 -311 78 -581 387 -553 959 -973 1600 -1174 134 -42
367 -89 516 -105 140 -15 430 -15 570 0 608 64 1201 341 1692 789 166 151 388
419 497 601 113 187 114 291 5 471 -187 308 -487 627 -804 855 -533 384 -1143
576 -1765 557z m161 -430 c40 -24 73 -94 65 -137 -14 -71 -73 -116 -154 -116
-68 0 -192 -34 -262 -71 -77 -41 -168 -124 -216 -196 -53 -80 -83 -168 -94
-281 -6 -53 -17 -106 -26 -119 -59 -91 -189 -79 -241 22 -30 56 4 276 62 403
85 186 265 363 450 444 112 49 183 65 303 67 63 1 91 -3 113 -16z m-1221 -290
c-172 -345 -171 -783 1 -1125 186 -369 561 -643 953 -697 99 -14 293 -14 392
0 392 54 767 328 953 697 172 342 173 780 1 1125 -21 42 -36 77 -34 77 29 0
323 -190 444 -286 188 -150 430 -414 576 -629 l57 -84 -33 -51 c-105 -164
-317 -409 -477 -552 -504 -450 -1069 -678 -1683 -678 -614 0 -1180 228 -1683
678 -160 143 -372 388 -477 552 l-33 51 57 84 c146 215 388 479 576 629 124
98 411 284 442 286 4 0 -11 -35 -32 -77z"/>
</g>
</svg>
