<?xml version="1.0" encoding="UTF-8"?>
<svg version="1.1" xmlns="http://www.w3.org/2000/svg" width="513" height="513">
<path d="M0 0 C0.94488785 -0.00705963 1.8897757 -0.01411926 2.86329651 -0.02139282 C41.96677384 -0.24733053 41.96677384 -0.24733053 58.76953125 3.203125 C60.28836914 3.50114014 60.28836914 3.50114014 61.83789062 3.80517578 C107.72863491 12.98194984 152.16580077 34.03366028 186.10546875 66.65625 C188.23025675 68.68757226 190.37342565 70.59221909 192.64453125 72.453125 C195.70527401 75.03492513 198.26008041 77.91922856 200.84375 80.97265625 C202.18350837 82.5243845 203.56490187 84.04072769 204.9765625 85.52734375 C217.60445544 98.84885278 227.66624165 114.32093498 236.76953125 130.203125 C237.19862793 130.95142578 237.62772461 131.69972656 238.06982422 132.47070312 C250.7662684 154.91182446 259.14680626 179.22942738 264.51953125 204.390625 C264.81778809 205.77785767 264.81778809 205.77785767 265.12207031 207.19311523 C268.41394507 223.3998108 269.14483399 239.33350461 269.08203125 255.828125 C269.0798761 256.84636353 269.07772095 257.86460205 269.07550049 258.91369629 C269.02580521 273.53559924 268.72014367 287.83446432 265.76953125 302.203125 C265.47151611 303.72196289 265.47151611 303.72196289 265.16748047 305.27148438 C257.79942663 342.11727272 243.01180395 376.86234183 220.76953125 407.203125 C220.34816895 407.78143066 219.92680664 408.35973633 219.49267578 408.95556641 C214.17873043 416.19921468 208.46677715 422.91314006 202.3125 429.44921875 C200.52322165 431.3869165 198.83300084 433.31456521 197.16796875 435.3515625 C195.25655729 437.62408752 193.47141354 439.50110689 191.20703125 441.390625 C188.81386585 443.41970958 186.48971987 445.47008134 184.21875 447.63671875 C170.63536095 460.58133155 155.01115426 470.89381705 138.76953125 480.203125 C138.02123047 480.63222168 137.27292969 481.06131836 136.50195312 481.50341797 C114.06083179 494.19986215 89.74322887 502.58040001 64.58203125 507.953125 C63.65720947 508.15196289 62.7323877 508.35080078 61.77954102 508.55566406 C45.57284545 511.84753882 29.63915164 512.57842774 13.14453125 512.515625 C11.61717346 512.51239227 11.61717346 512.51239227 10.05895996 512.50909424 C-4.56294299 512.45939896 -18.86180807 512.15373742 -33.23046875 509.203125 C-34.24302734 509.00444824 -35.25558594 508.80577148 -36.29882812 508.60107422 C-73.14461647 501.23302038 -107.88968558 486.4453977 -138.23046875 464.203125 C-138.80877441 463.7817627 -139.38708008 463.36040039 -139.98291016 462.92626953 C-147.25885775 457.58862937 -154.00403906 451.83841177 -160.578125 445.66796875 C-162.68757939 443.70763632 -164.81992817 441.84257817 -167.04296875 440.015625 C-170.12279949 437.40961438 -172.70149205 434.51009746 -175.3046875 431.43359375 C-176.64444587 429.8818655 -178.02583937 428.36552231 -179.4375 426.87890625 C-210.19643573 394.43046516 -229.72691032 351.35129033 -238.98046875 308.015625 C-239.17930664 307.09080322 -239.37814453 306.16598145 -239.58300781 305.21313477 C-242.87488257 289.0064392 -243.60577149 273.07274539 -243.54296875 256.578125 C-243.5408136 255.55988647 -243.53865845 254.54164795 -243.53643799 253.49255371 C-243.48674271 238.87065076 -243.18108117 224.57178568 -240.23046875 210.203125 C-240.03179199 209.19056641 -239.83311523 208.17800781 -239.62841797 207.13476562 C-230.43351083 161.15334236 -209.40413672 117.14906588 -176.9140625 83.0390625 C-174.68929883 80.6880022 -172.56825862 78.29938648 -170.48046875 75.828125 C-167.66994432 72.5841703 -164.63199308 69.79110768 -161.35546875 67.0234375 C-159.92981854 65.80220037 -158.5335819 64.545834 -157.16796875 63.2578125 C-116.39213167 24.88888247 -56.07221177 0.27991109 0 0 Z " fill="#DB9834" transform="translate(244.23046875,0.796875)"/>
<path d="M0 0 C0.66 0 1.32 0 2 0 C0.14876033 4.76033058 0.14876033 4.76033058 -1.125 6.8125 C-3.21480123 12.03700306 -2.36893376 17.86105921 -0.21484375 22.93359375 C12.95881491 45.34152118 51.08106878 55.37343608 73.76171875 65.3984375 C74.41427643 65.68770111 75.06683411 65.97696472 75.73916626 66.2749939 C76.38558075 66.5598465 77.03199524 66.8446991 77.69799805 67.13818359 C78.70160873 67.60253311 78.70160873 67.60253311 79.72549438 68.07626343 C82.05631195 69.08386143 82.05631195 69.08386143 84.84457397 69.71792603 C91.10501835 71.56899977 94.49858337 73.95648279 97.73477077 79.51968384 C99.83347524 83.48836742 101.74471654 87.53308563 103.640625 91.6015625 C104.49745718 93.36346964 105.35802016 95.12356683 106.22210693 96.88192749 C108.48160838 101.50139367 110.69629212 106.14088653 112.90014648 110.78710938 C116.42863105 118.20528708 120.027385 125.58969038 123.62096405 132.97648239 C124.86088098 135.54006543 126.08335879 138.11134682 127.30279541 140.6847229 C135.28137103 157.68015795 135.28137103 157.68015795 149 170 C153.80744711 171.60248237 157.88233836 171.9375406 162.5234375 169.8828125 C164.72982861 168.65085279 166.87972914 167.37424963 169 166 C167.6658782 168.79602411 166.17685056 171.33020708 164.41796875 173.87890625 C163.90492188 174.62527344 163.391875 175.37164062 162.86328125 176.140625 C162.31027344 176.93984375 161.75726563 177.7390625 161.1875 178.5625 C160.00383974 180.28250632 158.82024787 182.0025597 157.63671875 183.72265625 C157.03134277 184.60066895 156.4259668 185.47868164 155.80224609 186.38330078 C153.02506068 190.4155242 150.26283007 194.45793368 147.5 198.5 C146.41674848 200.08338931 145.33341489 201.66672247 144.25 203.25 C143.71375 204.03375 143.1775 204.8175 142.625 205.625 C133.6875 218.6875 133.6875 218.6875 124.75 231.75 C123.9453833 232.92598755 123.9453833 232.92598755 123.12451172 234.12573242 C122.04282934 235.70664032 120.96112366 237.28753229 119.87939453 238.8684082 C117.14560899 242.8637193 114.41224798 246.85931967 111.6796875 250.85546875 C110.57814154 252.46615714 109.47657913 254.07683429 108.375 255.6875 C107.83576904 256.47608398 107.29653809 257.26466797 106.7409668 258.07714844 C104.19656056 261.79645921 101.64855946 265.51317232 99.08984375 269.22265625 C98.62690918 269.89466064 98.16397461 270.56666504 97.68701172 271.2590332 C96.78140844 272.5707907 95.8729453 273.88057911 94.96142578 275.18823242 C92.6543905 278.51437031 90.44444087 281.86974326 88.33984375 285.328125 C87.68665161 286.37758301 87.68665161 286.37758301 87.02026367 287.44824219 C86.19589457 288.77978129 85.39127497 290.12382951 84.6105957 291.48144531 C83.484375 293.28125 83.484375 293.28125 81 296 C74.95532879 297.10526775 68.68398025 294.94759068 62.8125 293.4375 C61.75385742 293.16719971 60.69521484 292.89689941 59.60449219 292.6184082 C28.76293027 284.54272786 -0.28070059 270.85434756 -26 252 C-26.8674585 251.36795654 -26.8674585 251.36795654 -27.75244141 250.72314453 C-35.028389 245.38550437 -41.77357031 239.63528677 -48.34765625 233.46484375 C-50.45711064 231.50451132 -52.58945942 229.63945317 -54.8125 227.8125 C-57.89233074 225.20648938 -60.4710233 222.30697246 -63.07421875 219.23046875 C-64.41397712 217.6787405 -65.79537062 216.16239731 -67.20703125 214.67578125 C-96.8388986 183.41631537 -122.80855002 135.82544621 -127.25463867 92.51977539 C-127 90 -127 90 -125.49389648 88.41357422 C-124.79337158 87.9651416 -124.09284668 87.51670898 -123.37109375 87.0546875 C-122.5912915 86.54107666 -121.81148926 86.02746582 -121.00805664 85.49829102 C-120.15977295 84.96260498 -119.31148926 84.42691895 -118.4375 83.875 C-116.67306652 82.71699332 -114.91005961 81.55681027 -113.1484375 80.39453125 C-112.27026367 79.82041504 -111.39208984 79.24629883 -110.48730469 78.65478516 C-107.09559639 76.39830706 -103.82359157 74.0022998 -100.5625 71.5625 C-92.31397264 65.43826941 -83.87915713 59.58650562 -75.45166016 53.71240234 C-69.64121955 49.65400457 -63.85931176 45.55502272 -58.07226562 41.46337891 C-55.9822021 39.9874316 -53.88986911 38.51475678 -51.796875 37.04296875 C-44.53522061 31.93322627 -37.30777072 26.78263245 -30.125 21.5625 C-22.85161174 16.27654687 -15.46996979 11.16505579 -8.01611328 6.13696289 C-7.2579834 5.62383545 -6.49985352 5.11070801 -5.71875 4.58203125 C-5.04779297 4.13061768 -4.37683594 3.6792041 -3.68554688 3.21411133 C-1.86230574 1.96928976 -1.86230574 1.96928976 0 0 Z " fill="#9B6B25" transform="translate(132,213)"/>
<path d="M0 0 C3.46694424 2.79234179 5.20435538 6.13259738 6.5859375 10.27734375 C6.70792888 12.27459795 6.76141262 14.27640356 6.7734375 16.27734375 C6.78761719 17.32921875 6.80179687 18.38109375 6.81640625 19.46484375 C6.10233639 31.27725368 2.16563393 41.80136355 -1.7890625 52.83984375 C-3.16112835 56.70967483 -4.52743092 60.58153745 -5.89453125 64.453125 C-6.43818077 65.98868546 -6.43818077 65.98868546 -6.99281311 67.55526733 C-9.75826189 75.37819977 -12.46698895 83.21955815 -15.15234375 91.0703125 C-26.19631075 123.34485491 -37.57114041 155.48067392 -49.38287354 187.48260498 C-50.33176857 190.0543099 -51.27830187 192.6268697 -52.22412109 195.19970703 C-70.6551908 245.26483136 -70.6551908 245.26483136 -84.4453125 252.5703125 C-88.55097058 254.04476511 -92.12970853 254.16833659 -96.296875 252.54296875 C-100.32766717 250.4141521 -103.38147458 247.68900516 -106.4140625 244.27734375 C-107.13252098 243.47785561 -107.13252098 243.47785561 -107.86549377 242.66221619 C-114.23595016 235.06052771 -118.26655408 226.23961161 -122.62890625 217.40625 C-123.49253026 215.67474537 -124.35692826 213.94362658 -125.22206116 212.21287537 C-127.02245018 208.60596421 -128.81621813 204.99586834 -130.60473633 201.38305664 C-132.90072394 196.74552611 -135.20909355 192.11429919 -137.521842 187.48510838 C-139.30182708 183.92072083 -141.07745785 180.35417986 -142.85153389 176.78684807 C-143.70194667 175.0771325 -144.55322598 173.36784768 -145.40537834 171.65899849 C-146.58941043 169.28193227 -147.76806232 166.90227983 -148.94506836 164.52172852 C-149.29874985 163.81370087 -149.65243134 163.10567322 -150.01683044 162.37619019 C-152.4140625 157.5065374 -152.4140625 157.5065374 -152.4140625 155.27734375 C-153.29582657 155.07167282 -153.29582657 155.07167282 -154.19540405 154.86184692 C-157.61085786 153.9620493 -160.82268113 152.55990761 -164.078125 151.20703125 C-164.8265567 150.89716278 -165.5749884 150.58729431 -166.34609985 150.26803589 C-174.57873427 146.83185352 -182.68917117 143.13842308 -190.7890625 139.40234375 C-192.33072329 138.69269556 -193.87239001 137.98306028 -195.4140625 137.2734375 C-198.41084756 135.89314195 -201.40639011 134.5101898 -204.40136719 133.12597656 C-207.76504874 131.57312798 -211.13817506 130.04223807 -214.515625 128.51953125 C-226.83821037 122.91664792 -242.82994099 115.51377993 -248.4140625 102.27734375 C-249.84447402 97.45911546 -250.5767306 92.96956634 -248.53515625 88.2421875 C-247.2932173 86.11490593 -245.93741969 84.21262916 -244.4140625 82.27734375 C-243.929375 81.65601563 -243.4446875 81.0346875 -242.9453125 80.39453125 C-235.40364996 71.85470749 -222.630627 69.18433862 -212.203125 65.53125 C-210.93316874 65.08348147 -209.66332543 64.63539248 -208.39358521 64.18701172 C-205.68782864 63.23221328 -202.98136268 62.2794658 -200.27429199 61.32839966 C-195.96060573 59.81282008 -191.64861316 58.2924625 -187.33691406 56.77124023 C-182.84889038 55.18798767 -178.36080551 53.60491151 -173.87219238 52.02333069 C-158.62805121 46.65163508 -143.3951113 41.24852985 -128.1640625 35.83984375 C-126.86843986 35.37978805 -125.57281608 34.91973555 -124.27719116 34.45968628 C-122.99102778 34.00299087 -121.70486445 33.54629532 -120.41870117 33.08959961 C-119.78742404 32.86544467 -119.15614691 32.64128973 -118.50574017 32.41034222 C-115.38176164 31.30106718 -112.25780681 30.19172551 -109.13389587 29.08226013 C-102.23748606 26.63335428 -95.33980763 24.18807844 -88.44058228 21.74711609 C-84.35457208 20.30123025 -80.26921587 18.85350252 -76.18395996 17.40548706 C-74.34857903 16.75545467 -72.51290374 16.10625254 -70.67687988 15.45803833 C-59.38480824 11.47095556 -48.16767093 7.31999528 -36.99047852 3.02099609 C-11.4283429 -6.77503028 -11.4283429 -6.77503028 0 0 Z " fill="#FEFEFE" transform="translate(378.4140625,131.72265625)"/>
<path d="M0 0 C2.875 0.625 2.875 0.625 6 2 C7.375 5.125 7.375 5.125 8 8 C6.85073734 7.04578192 5.70569459 6.08647955 4.5625 5.125 C3.92441406 4.59132813 3.28632813 4.05765625 2.62890625 3.5078125 C1 2 1 2 0 0 Z " fill="#DA9E44" transform="translate(220,285)"/>
</svg>
